<mxfile host="Electron" modified="2024-02-15T06:06:35.241Z" agent="Mozilla/5.0 (Macintosh; Intel Mac OS X 10_15_7) AppleWebKit/537.36 (KHTML, like Gecko) draw.io/23.0.2 Chrome/120.0.6099.109 Electron/28.1.0 Safari/537.36" etag="kXhx0Rv3Jljyk4KkFu6k" version="23.0.2" type="device">
  <diagram name="페이지-1" id="pGRWbNRjauQLXZVmLOop">
    <mxGraphModel dx="1114" dy="894" grid="1" gridSize="10" guides="1" tooltips="1" connect="1" arrows="1" fold="1" page="1" pageScale="1" pageWidth="827" pageHeight="1169" math="0" shadow="0">
      <root>
        <mxCell id="0" />
        <mxCell id="1" parent="0" />
        <mxCell id="6P3BOb9Bxy_BTsjg_yee-1" value="" style="endArrow=none;html=1;rounded=0;strokeWidth=2;" edge="1" parent="1">
          <mxGeometry width="50" height="50" relative="1" as="geometry">
            <mxPoint x="120" y="200" as="sourcePoint" />
            <mxPoint x="520" y="200" as="targetPoint" />
          </mxGeometry>
        </mxCell>
        <mxCell id="6P3BOb9Bxy_BTsjg_yee-2" value="" style="endArrow=none;html=1;rounded=0;strokeWidth=2;" edge="1" parent="1">
          <mxGeometry width="50" height="50" relative="1" as="geometry">
            <mxPoint x="120" y="320" as="sourcePoint" />
            <mxPoint x="520" y="320" as="targetPoint" />
          </mxGeometry>
        </mxCell>
        <mxCell id="6P3BOb9Bxy_BTsjg_yee-3" value="요청 A" style="text;html=1;strokeColor=#82b366;fillColor=#d5e8d4;align=center;verticalAlign=middle;whiteSpace=wrap;rounded=0;" vertex="1" parent="1">
          <mxGeometry x="120" y="170" width="60" height="20" as="geometry" />
        </mxCell>
        <mxCell id="6P3BOb9Bxy_BTsjg_yee-4" value="요청 B" style="text;html=1;strokeColor=#82b366;fillColor=#d5e8d4;align=center;verticalAlign=middle;whiteSpace=wrap;rounded=0;" vertex="1" parent="1">
          <mxGeometry x="120" y="289" width="60" height="20" as="geometry" />
        </mxCell>
        <mxCell id="6P3BOb9Bxy_BTsjg_yee-5" value="Thread 1" style="text;html=1;strokeColor=#82b366;fillColor=#d5e8d4;align=center;verticalAlign=middle;whiteSpace=wrap;rounded=0;" vertex="1" parent="1">
          <mxGeometry x="120" y="208" width="60" height="20" as="geometry" />
        </mxCell>
        <mxCell id="6P3BOb9Bxy_BTsjg_yee-6" value="Thread 2" style="text;html=1;strokeColor=#82b366;fillColor=#d5e8d4;align=center;verticalAlign=middle;whiteSpace=wrap;rounded=0;" vertex="1" parent="1">
          <mxGeometry x="120" y="330" width="60" height="20" as="geometry" />
        </mxCell>
        <mxCell id="6P3BOb9Bxy_BTsjg_yee-8" value="" style="endArrow=none;html=1;rounded=0;strokeWidth=2;" edge="1" parent="1">
          <mxGeometry width="50" height="50" relative="1" as="geometry">
            <mxPoint x="330" y="200" as="sourcePoint" />
            <mxPoint x="380" y="150" as="targetPoint" />
          </mxGeometry>
        </mxCell>
        <mxCell id="6P3BOb9Bxy_BTsjg_yee-9" value="" style="endArrow=none;html=1;rounded=0;strokeWidth=2;" edge="1" parent="1">
          <mxGeometry width="50" height="50" relative="1" as="geometry">
            <mxPoint x="380" y="150" as="sourcePoint" />
            <mxPoint x="520" y="150" as="targetPoint" />
          </mxGeometry>
        </mxCell>
        <mxCell id="6P3BOb9Bxy_BTsjg_yee-11" style="edgeStyle=orthogonalEdgeStyle;rounded=0;orthogonalLoop=1;jettySize=auto;html=1;curved=1;" edge="1" parent="1" source="6P3BOb9Bxy_BTsjg_yee-12">
          <mxGeometry relative="1" as="geometry">
            <mxPoint x="330" y="200" as="targetPoint" />
          </mxGeometry>
        </mxCell>
        <mxCell id="6P3BOb9Bxy_BTsjg_yee-12" value="@Async 메서드가 다른 스레드 생성" style="rounded=1;whiteSpace=wrap;html=1;fillColor=#f8cecc;strokeColor=#b85450;" vertex="1" parent="1">
          <mxGeometry x="460" y="240" width="100" height="40" as="geometry" />
        </mxCell>
        <mxCell id="6P3BOb9Bxy_BTsjg_yee-31" style="edgeStyle=orthogonalEdgeStyle;rounded=0;orthogonalLoop=1;jettySize=auto;html=1;startArrow=block;startFill=1;endArrow=none;endFill=0;dashed=1;" edge="1" parent="1" source="6P3BOb9Bxy_BTsjg_yee-13">
          <mxGeometry relative="1" as="geometry">
            <mxPoint x="260" y="200" as="targetPoint" />
            <Array as="points">
              <mxPoint x="261" y="60" />
            </Array>
          </mxGeometry>
        </mxCell>
        <mxCell id="6P3BOb9Bxy_BTsjg_yee-32" style="edgeStyle=orthogonalEdgeStyle;rounded=0;orthogonalLoop=1;jettySize=auto;html=1;startArrow=block;startFill=1;endArrow=none;endFill=0;dashed=1;" edge="1" parent="1" source="6P3BOb9Bxy_BTsjg_yee-13">
          <mxGeometry relative="1" as="geometry">
            <mxPoint x="450" y="150" as="targetPoint" />
            <Array as="points">
              <mxPoint x="451" y="80" />
            </Array>
          </mxGeometry>
        </mxCell>
        <mxCell id="6P3BOb9Bxy_BTsjg_yee-33" style="edgeStyle=orthogonalEdgeStyle;rounded=0;orthogonalLoop=1;jettySize=auto;html=1;dashed=1;startArrow=block;startFill=1;endArrow=none;endFill=0;" edge="1" parent="1" source="6P3BOb9Bxy_BTsjg_yee-13">
          <mxGeometry relative="1" as="geometry">
            <mxPoint x="470" y="320" as="targetPoint" />
            <Array as="points">
              <mxPoint x="635" y="350" />
              <mxPoint x="471" y="350" />
            </Array>
          </mxGeometry>
        </mxCell>
        <mxCell id="6P3BOb9Bxy_BTsjg_yee-13" value="SecurityContext" style="rounded=1;whiteSpace=wrap;html=1;fillColor=#dae8fc;strokeColor=#6c8ebf;" vertex="1" parent="1">
          <mxGeometry x="570" y="50" width="130" height="40" as="geometry" />
        </mxCell>
        <mxCell id="6P3BOb9Bxy_BTsjg_yee-14" value="Thread 1`" style="text;html=1;strokeColor=#b85450;fillColor=#f8cecc;align=center;verticalAlign=middle;whiteSpace=wrap;rounded=0;" vertex="1" parent="1">
          <mxGeometry x="380" y="156" width="60" height="20" as="geometry" />
        </mxCell>
        <mxCell id="6P3BOb9Bxy_BTsjg_yee-16" value="" style="endArrow=none;html=1;rounded=0;strokeWidth=2;" edge="1" parent="1">
          <mxGeometry width="50" height="50" relative="1" as="geometry">
            <mxPoint x="120" y="200" as="sourcePoint" />
            <mxPoint x="520" y="200" as="targetPoint" />
          </mxGeometry>
        </mxCell>
        <mxCell id="6P3BOb9Bxy_BTsjg_yee-17" value="" style="endArrow=none;html=1;rounded=0;strokeWidth=2;" edge="1" parent="1">
          <mxGeometry width="50" height="50" relative="1" as="geometry">
            <mxPoint x="120" y="320" as="sourcePoint" />
            <mxPoint x="520" y="320" as="targetPoint" />
          </mxGeometry>
        </mxCell>
        <mxCell id="6P3BOb9Bxy_BTsjg_yee-18" value="요청 A" style="text;html=1;strokeColor=#82b366;fillColor=#d5e8d4;align=center;verticalAlign=middle;whiteSpace=wrap;rounded=0;" vertex="1" parent="1">
          <mxGeometry x="120" y="170" width="60" height="20" as="geometry" />
        </mxCell>
        <mxCell id="6P3BOb9Bxy_BTsjg_yee-19" value="요청 B" style="text;html=1;strokeColor=#82b366;fillColor=#d5e8d4;align=center;verticalAlign=middle;whiteSpace=wrap;rounded=0;" vertex="1" parent="1">
          <mxGeometry x="120" y="289" width="60" height="20" as="geometry" />
        </mxCell>
        <mxCell id="6P3BOb9Bxy_BTsjg_yee-20" value="Thread 1" style="text;html=1;strokeColor=#82b366;fillColor=#d5e8d4;align=center;verticalAlign=middle;whiteSpace=wrap;rounded=0;" vertex="1" parent="1">
          <mxGeometry x="120" y="208" width="60" height="20" as="geometry" />
        </mxCell>
        <mxCell id="6P3BOb9Bxy_BTsjg_yee-21" value="Thread 2" style="text;html=1;strokeColor=#82b366;fillColor=#d5e8d4;align=center;verticalAlign=middle;whiteSpace=wrap;rounded=0;" vertex="1" parent="1">
          <mxGeometry x="120" y="330" width="60" height="20" as="geometry" />
        </mxCell>
        <mxCell id="6P3BOb9Bxy_BTsjg_yee-23" value="" style="endArrow=none;html=1;rounded=0;strokeWidth=2;" edge="1" parent="1">
          <mxGeometry width="50" height="50" relative="1" as="geometry">
            <mxPoint x="330" y="200" as="sourcePoint" />
            <mxPoint x="380" y="150" as="targetPoint" />
          </mxGeometry>
        </mxCell>
        <mxCell id="6P3BOb9Bxy_BTsjg_yee-24" value="" style="endArrow=none;html=1;rounded=0;strokeWidth=2;" edge="1" parent="1">
          <mxGeometry width="50" height="50" relative="1" as="geometry">
            <mxPoint x="380" y="150" as="sourcePoint" />
            <mxPoint x="520" y="150" as="targetPoint" />
          </mxGeometry>
        </mxCell>
        <mxCell id="6P3BOb9Bxy_BTsjg_yee-26" style="edgeStyle=orthogonalEdgeStyle;rounded=0;orthogonalLoop=1;jettySize=auto;html=1;curved=1;" edge="1" parent="1" source="6P3BOb9Bxy_BTsjg_yee-27">
          <mxGeometry relative="1" as="geometry">
            <mxPoint x="330" y="200" as="targetPoint" />
          </mxGeometry>
        </mxCell>
        <mxCell id="6P3BOb9Bxy_BTsjg_yee-27" value="@Async 메서드가 다른 스레드 생성" style="rounded=1;whiteSpace=wrap;html=1;fillColor=#f5f5f5;strokeColor=#666666;fontColor=#333333;" vertex="1" parent="1">
          <mxGeometry x="460" y="240" width="100" height="40" as="geometry" />
        </mxCell>
        <mxCell id="6P3BOb9Bxy_BTsjg_yee-29" value="Thread 1`" style="text;html=1;strokeColor=#b85450;fillColor=#f8cecc;align=center;verticalAlign=middle;whiteSpace=wrap;rounded=0;" vertex="1" parent="1">
          <mxGeometry x="380" y="156" width="60" height="20" as="geometry" />
        </mxCell>
        <mxCell id="6P3BOb9Bxy_BTsjg_yee-30" value="세부 정보 추가" style="text;html=1;strokeColor=#666666;fillColor=#f5f5f5;align=center;verticalAlign=middle;whiteSpace=wrap;rounded=0;fontColor=#333333;" vertex="1" parent="1">
          <mxGeometry x="374" y="30" width="80" height="20" as="geometry" />
        </mxCell>
        <mxCell id="6P3BOb9Bxy_BTsjg_yee-34" value="세부 정보 변경" style="text;html=1;strokeColor=#666666;fillColor=#f5f5f5;align=center;verticalAlign=middle;whiteSpace=wrap;rounded=0;fontColor=#333333;" vertex="1" parent="1">
          <mxGeometry x="460" y="90" width="80" height="20" as="geometry" />
        </mxCell>
        <mxCell id="6P3BOb9Bxy_BTsjg_yee-35" value="세부 정보 더 추가" style="text;html=1;strokeColor=#666666;fillColor=#f5f5f5;align=center;verticalAlign=middle;whiteSpace=wrap;rounded=0;fontColor=#333333;" vertex="1" parent="1">
          <mxGeometry x="650" y="120" width="90" height="20" as="geometry" />
        </mxCell>
      </root>
    </mxGraphModel>
  </diagram>
</mxfile>
